<!--
  - /**
  -  * * GNU General Public License v3.0
  -  * *******************************************************************************************
  -  *  * Created By Debojyoti Singha
  -  *  * Copyright (c) 2023.
  -  *  * This program is free software: you can redistribute it and/or modify
  -  *  * it under the terms of the GNU General Public License as published by
  -  *  * the Free Software Foundation, either version 3 of the License, or
  -  *  * (at your option) any later version.
  -  *  *
  -  *  * This program is distributed in the hope that it will be useful,
  -  *  *
  -  *  * but WITHOUT ANY WARRANTY; without even the implied warranty of
  -  *  * MERCHANTABILITY or FITNESS FOR A PARTICULAR PURPOSE.  See the
  -  *  * GNU General Public License for more details.
  -  *  *
  -  *  * You should have received a copy of the GNU General Public License
  -  *  * along with this program.  If not, see <https://www.gnu.org/licenses/>.
  -  *  * Contact Email: support@swingtechnologies.in
  -  * ******************************************************************************************
  -  */
  -->

<svg width="126" height="126" viewBox="0 0 126 126" fill="none" xmlns="http://www.w3.org/2000/svg">
<circle cx="63" cy="63" r="63" fill="black"/>
<g clip-path="url(#clip0_37_49)">
<path d="M30.5876 39.848C30.5876 41.567 30.5876 43.3269 30.5876 45.0458C30.5876 49.2205 30.5876 53.3951 30.5876 57.5289C30.5876 62.6039 30.5876 67.6381 30.5876 72.7131C30.5876 77.0924 30.5876 81.4308 30.5876 85.8101C30.5876 87.9383 30.5033 90.0666 30.5876 92.1539C30.5876 92.1948 30.5876 92.1948 30.5876 92.2358C30.5876 93.259 31.7248 93.8729 32.6515 93.3817C34.4627 92.4404 36.2739 91.4581 38.0852 90.5168C40.9915 89.0025 43.8979 87.4472 46.8043 85.9329C47.4782 85.5645 48.1101 85.2371 48.784 84.8687C49.2052 84.6641 49.4579 84.173 49.4579 83.7228C49.4579 82.1266 49.4579 80.5713 49.4579 78.9751C49.4579 75.1688 49.4579 71.4034 49.4579 67.5971C49.4579 63.0132 49.4579 58.4293 49.4579 53.8044C49.4579 49.8344 49.4579 45.8644 49.4579 41.8944C49.4579 39.9708 49.5001 38.0472 49.4579 36.1235C49.4579 36.0826 49.4579 36.0826 49.4579 36.0417C49.4579 35.1413 48.5734 34.5683 47.731 34.7729C43.0134 35.878 38.2958 36.983 33.5782 38.0881C32.9042 38.2518 32.2303 38.3746 31.5985 38.5383C30.8824 38.702 30.4612 39.4796 30.6297 40.1754C30.8403 40.8712 31.5985 41.2805 32.3145 41.1168C37.0321 40.0117 41.7497 38.9066 46.4673 37.8016C47.1413 37.6379 47.7731 37.4742 48.447 37.3514C47.8573 36.9421 47.3097 36.4919 46.72 36.0826C46.72 37.6788 46.72 39.2341 46.72 40.8303C46.72 44.6366 46.72 48.4019 46.72 52.2082C46.72 56.7922 46.72 61.3761 46.72 66.001C46.72 69.971 46.72 73.941 46.72 77.911C46.72 79.2207 46.72 80.5304 46.72 81.7991C46.72 82.4131 46.6779 83.027 46.72 83.6409C46.72 83.6818 46.72 83.6818 46.72 83.7228C46.9307 83.3544 47.1834 82.9451 47.394 82.5768C45.5828 83.5181 43.7716 84.5004 41.9603 85.4417C39.054 86.9561 36.1476 88.5113 33.2412 90.0257C32.5673 90.394 31.9354 90.7214 31.2615 91.0898C31.9354 91.4581 32.6515 91.8674 33.3254 92.2358C33.3254 90.5168 33.3254 88.7569 33.3254 87.0379C33.3254 82.8633 33.3254 78.6886 33.3254 74.5549C33.3254 69.4798 33.3254 64.4457 33.3254 59.3706C33.3254 54.9913 33.3254 50.653 33.3254 46.2737C33.3254 44.1454 33.4097 42.0172 33.3254 39.9298C33.3254 39.8889 33.3254 39.8889 33.3254 39.848C33.3254 38.129 30.5876 38.129 30.5876 39.848Z" fill="url(#paint0_linear_37_49)"/>
<path d="M88.2096 39.848C90.0209 40.2573 91.8742 40.7075 93.6854 41.1168C93.3484 40.7075 93.0115 40.2573 92.6745 39.848C92.6745 41.567 92.6745 43.3269 92.6745 45.0458C92.6745 49.2205 92.6745 53.3951 92.6745 57.5289C92.6745 62.6039 92.6745 67.6381 92.6745 72.7131C92.6745 77.0924 92.6745 81.4308 92.6745 85.8101C92.6745 87.2426 92.6745 88.675 92.6745 90.1075C92.6745 90.8033 92.6324 91.4581 92.6745 92.1539C92.6745 92.1948 92.6745 92.1948 92.6745 92.2358C93.3484 91.8674 94.0645 91.4581 94.7384 91.0898C92.9272 90.1484 91.116 89.1662 89.3048 88.2248C86.3984 86.7105 83.492 85.1552 80.5857 83.6409C79.9117 83.2726 79.2799 82.9451 78.606 82.5768C78.8166 82.9451 79.0693 83.3544 79.2799 83.7228C79.2799 82.454 79.2799 81.2262 79.2799 79.9574C79.2799 76.9696 79.2799 73.9819 79.2799 70.9942C79.2799 67.3925 79.2799 63.7499 79.2799 60.1483C79.2799 56.9968 79.2799 53.8454 79.2799 50.7348C79.2799 49.2205 79.322 47.6652 79.2799 46.1509C79.2799 46.11 79.2799 46.11 79.2799 46.069C79.2799 44.3501 76.542 44.3501 76.542 46.069C76.542 47.3378 76.542 48.5656 76.542 49.8344C76.542 52.8222 76.542 55.8099 76.542 58.7976C76.542 62.3993 76.542 66.0419 76.542 69.6435C76.542 72.795 76.542 75.9464 76.542 79.057C76.542 80.5713 76.4999 82.1266 76.542 83.6409C76.542 83.6818 76.542 83.6818 76.542 83.7228C76.542 84.173 76.7947 84.6641 77.216 84.8687C79.0272 85.8101 80.8384 86.7924 82.6496 87.7337C85.556 89.248 88.4624 90.8033 91.3687 92.3176C92.0427 92.686 92.6745 93.0134 93.3484 93.3817C94.233 93.8729 95.4124 93.259 95.4124 92.2358C95.4124 90.5168 95.4124 88.7569 95.4124 87.0379C95.4124 82.8633 95.4124 78.6886 95.4124 74.5549C95.4124 69.4798 95.4124 64.4457 95.4124 59.3706C95.4124 54.9913 95.4124 50.653 95.4124 46.2737C95.4124 44.1454 95.4966 42.0172 95.4124 39.9299C95.4124 39.8889 95.4124 39.8889 95.4124 39.848C95.4124 39.275 94.9912 38.702 94.4015 38.5792C92.5903 38.1699 90.7369 37.7197 88.9257 37.3105C88.2096 37.1468 87.4515 37.5151 87.2408 38.2518C87.0724 38.8657 87.4936 39.6843 88.2096 39.848Z" fill="url(#paint1_linear_37_49)"/>
<path d="M65.422 51.1032C63.9477 49.6707 62.8104 48.5657 61.3783 47.1332C58.6825 44.5138 55.9868 41.8944 53.291 39.275C52.2801 38.2927 51.227 37.2695 50.2161 36.2873C49.7528 35.8371 49.2052 35.1004 48.5734 34.8548C48.0679 34.6502 47.6467 34.8139 47.1413 34.8957C46.5937 35.0185 46.0882 35.1413 45.5407 35.2641C43.8558 35.6734 42.1709 36.0417 40.4861 36.451C37.5797 37.1468 34.6312 37.7607 31.7248 38.4974C31.6827 38.4974 31.5985 38.5383 31.5564 38.5383C30.5454 38.8248 30.2927 40.0936 30.9667 40.7894C32.1882 42.0581 33.4097 43.3678 34.6312 44.6366C37.5797 47.7062 40.4861 50.7758 43.4346 53.8454C46.9728 57.5698 50.511 61.2943 54.0492 64.9778C57.124 68.2111 60.1989 71.4444 63.2738 74.6368C64.748 76.192 66.1801 77.8291 67.7386 79.3026C67.7808 79.3435 67.7808 79.3435 67.7808 79.3844C68.3705 79.9983 69.5077 79.8346 69.929 79.0979C72.2878 74.9233 74.6887 70.7077 77.0475 66.533C77.3844 65.96 77.7214 65.3461 78.0584 64.7731C78.3532 64.2411 78.269 63.5862 77.8478 63.1769C75.5732 60.9668 73.2987 58.7567 71.0241 56.5466C70.6871 56.2192 70.3923 55.8918 70.0553 55.6053C68.7917 54.3774 67.0647 56.4648 68.3283 57.6926C70.6029 59.9027 72.6668 61.9082 74.9414 64.1183C75.2784 64.4457 75.5732 64.7731 75.9102 65.0596C75.8259 64.5276 75.7838 63.9955 75.6996 63.4634C73.3408 67.6381 70.9399 71.8537 68.5811 76.0283C68.2441 76.6013 67.9071 77.2152 67.5702 77.7882C68.2862 77.7064 69.0023 77.6245 69.7183 77.5017C68.4968 76.233 67.2753 74.9233 66.0538 73.6545C63.1053 70.5849 60.1989 67.5153 57.2504 64.4457C53.7122 60.7622 50.174 57.0377 46.6358 53.3133C43.561 50.08 40.4861 46.8467 37.4112 43.6543C36.4003 42.5902 35.3894 41.5261 34.3785 40.5029C33.9152 40.0117 33.4518 39.4797 32.9464 38.9885C32.9042 38.9476 32.9042 38.9476 32.9042 38.9067C32.6936 39.6434 32.483 40.3801 32.3145 41.1168C37.0321 40.0117 41.7497 38.9067 46.4673 37.8016C47.1413 37.6379 47.7731 37.4742 48.447 37.3514C47.9837 37.2286 47.5625 37.1058 47.0991 37.024C48.9946 38.8657 50.848 40.7075 52.7434 42.5083C55.734 45.4142 58.7247 48.361 61.7153 51.2669C62.3892 51.9218 63.1053 52.6175 63.7792 53.2724C65.0429 54.5002 66.6435 52.2901 65.422 51.1032Z" fill="url(#paint2_linear_37_49)"/>
<path d="M63.5265 71.2397C63.5265 71.1988 63.5265 71.1579 63.4844 71.076C63.4422 70.8305 63.5265 71.5262 63.5265 71.2397C63.5265 71.1579 63.4844 71.076 63.4844 70.9532C63.4001 70.4212 63.358 69.8891 63.3159 69.3571C63.1895 67.5153 63.1895 65.6326 63.3159 63.7908C63.358 63.2179 63.4001 62.6449 63.4844 62.0719C63.5265 61.7854 63.5686 61.4989 63.6107 61.2124C63.5686 61.6217 63.6529 61.0896 63.6529 61.0077C63.695 60.844 63.695 60.6803 63.7371 60.5166C63.9477 59.2069 64.2426 57.8972 64.6216 56.6285C64.8323 55.9736 65.0429 55.3188 65.2535 54.7048C65.3798 54.4183 65.4641 54.0909 65.5904 53.8044C65.6326 53.7226 65.8432 53.2314 65.7168 53.5179C65.801 53.3542 65.8853 53.1905 65.9274 53.0268C66.5171 51.7171 67.2753 50.4483 68.0756 49.2614C68.3283 48.934 68.5389 48.6066 68.7917 48.2792C68.6232 48.4838 68.7917 48.2792 68.8338 48.2382C68.918 48.1564 69.0023 48.0745 69.0444 47.9517C69.1708 47.788 69.3392 47.6243 69.4656 47.4606C70.0553 46.8057 70.6871 46.1918 71.319 45.6188C71.6559 45.3323 71.9929 45.0458 72.3299 44.7594C72.3299 44.7594 72.6247 44.5138 72.4984 44.6366C72.4141 44.6775 72.7511 44.4729 72.7932 44.4319C72.9617 44.3091 73.1302 44.1864 73.3408 44.0636C74.1832 43.4906 75.0256 42.9994 75.9102 42.5492C76.542 42.2218 76.7947 41.3214 76.4156 40.7484C75.152 38.8248 73.9305 36.9012 72.6668 35.0185C72.2877 35.6733 71.8665 36.3691 71.4874 37.024C73.5935 37.024 75.6996 37.024 77.8056 37.024C81.1754 37.024 84.503 37.024 87.8727 37.024C88.6309 37.024 89.4312 37.024 90.1893 37.024C89.8103 36.3691 89.389 35.6733 89.0099 35.0185C87.999 36.7784 86.9881 38.4974 85.9351 40.2573C84.2923 43.0404 82.6496 45.8644 81.049 48.6475C80.6699 49.3024 80.2908 49.9163 79.9117 50.5711C80.712 50.5711 81.4702 50.5711 82.2705 50.5711C81.1754 48.8112 80.0802 47.0104 78.985 45.2505C78.6902 44.8003 77.9741 44.4319 77.4266 44.6366C75.4468 45.4142 73.7199 46.9285 72.3299 48.4838C68.6232 52.6175 66.8962 57.9791 66.2223 63.3406C65.6326 68.3339 66.0117 73.368 66.812 78.2793C67.5701 77.8291 68.3283 77.4199 69.0865 76.9697C67.0647 74.8823 65.085 72.7541 63.0632 70.6667C62.5577 70.1347 61.631 70.1756 61.1256 70.6667C60.578 71.1988 60.6201 72.0174 61.1256 72.5494C63.1474 74.6368 65.1271 76.765 67.1489 78.8523C67.5701 79.3025 68.2862 79.3435 68.7917 79.057C69.3392 78.7295 69.5077 78.1566 69.4235 77.5426C68.7495 73.3271 68.4126 68.9887 68.7917 64.6913C68.8338 64.282 68.8759 63.8318 68.918 63.4225C68.9602 63.2179 68.9602 63.0132 69.0023 62.8086C68.9602 63.0951 69.0023 62.7267 69.0023 62.6858C69.0023 62.563 69.0444 62.4402 69.0444 62.3174C69.1708 61.5398 69.3392 60.7213 69.5077 59.9436C69.8447 58.5521 70.2659 57.2014 70.7714 55.8918C70.8135 55.769 70.8977 55.6053 70.9399 55.4825C71.0662 55.196 70.8556 55.6871 70.9399 55.5234C70.982 55.4415 70.982 55.4006 71.0241 55.3188C71.1505 55.0323 71.2768 54.7458 71.4453 54.4593C71.698 53.9681 71.9929 53.4361 72.2877 52.9449C72.5405 52.4947 72.8353 52.0445 73.1302 51.6352C73.2565 51.4306 73.425 51.2669 73.5514 51.0623C73.6356 50.9804 73.8462 50.653 73.5935 51.0213C73.6777 50.8985 73.762 50.8167 73.8462 50.7348C74.3517 50.1209 74.9414 49.507 75.5311 48.9749C75.7838 48.7294 76.0365 48.5247 76.3314 48.3201C76.3735 48.2792 76.4578 48.2382 76.4999 48.1973C76.7105 48.0336 76.205 48.4019 76.4156 48.2382C76.542 48.1564 76.6684 48.0745 76.7526 47.9927C77.1317 47.7471 77.5108 47.5015 77.932 47.256C78.1005 47.1741 78.7744 46.8876 78.1005 47.1741C77.595 46.9695 77.0896 46.7648 76.542 46.5602C77.6372 48.3201 78.7323 50.1209 79.8275 51.8808C80.3329 52.7403 81.6808 52.7812 82.1863 51.8808C83.1972 50.1209 84.2081 48.4019 85.2611 46.642C86.9039 43.8589 88.5466 41.0349 90.1472 38.2518C90.5263 37.597 90.9054 36.983 91.2845 36.3282C91.79 35.4687 91.1581 34.3227 90.1051 34.3227C87.999 34.3227 85.893 34.3227 83.7869 34.3227C80.4172 34.3227 77.0896 34.3227 73.7199 34.3227C72.9617 34.3227 72.1614 34.3227 71.4032 34.3227C70.3923 34.3227 69.6762 35.4687 70.2238 36.3282C71.4874 38.2518 72.709 40.1754 73.9726 42.0581C74.1411 41.4442 74.3096 40.8303 74.4781 40.2573C68.4547 43.2859 64.2847 48.6066 62.1786 54.8276C60.6622 59.2888 60.1989 64.1183 60.4516 68.7841C60.4937 69.8482 60.578 70.9123 60.7886 71.9355C60.915 72.6313 61.7995 73.0406 62.4735 72.8769C63.3159 72.6722 63.6107 71.9764 63.5265 71.2397Z" fill="url(#paint3_linear_37_49)"/>
</g>
<defs>
<linearGradient id="paint0_linear_37_49" x1="43.1317" y1="50.8352" x2="34.9762" y2="81.0512" gradientUnits="userSpaceOnUse">
<stop offset="2.02456e-07" stop-color="#0C65FF"/>
<stop offset="0.0745145" stop-color="#2086F2"/>
<stop offset="0.2044" stop-color="#40BADD"/>
<stop offset="0.3176" stop-color="#57DFCE"/>
<stop offset="0.4083" stop-color="#65F7C5"/>
<stop offset="0.4654" stop-color="#6AFFC2"/>
<stop offset="0.5574" stop-color="#6CFBC4"/>
<stop offset="0.6525" stop-color="#73EECA"/>
<stop offset="0.749" stop-color="#7DDAD4"/>
<stop offset="0.8465" stop-color="#8CBDE2"/>
<stop offset="0.9438" stop-color="#9F98F3"/>
<stop offset="1" stop-color="#AC7FFF"/>
</linearGradient>
<linearGradient id="paint1_linear_37_49" x1="82.0606" y1="85.5139" x2="88.7812" y2="55.7516" gradientUnits="userSpaceOnUse">
<stop offset="6.18023e-07" stop-color="#0C65FF"/>
<stop offset="0.074515" stop-color="#2086F2"/>
<stop offset="0.2044" stop-color="#40BADD"/>
<stop offset="0.3176" stop-color="#57DFCE"/>
<stop offset="0.4083" stop-color="#65F7C5"/>
<stop offset="0.4654" stop-color="#6AFFC2"/>
<stop offset="0.5574" stop-color="#6CFBC4"/>
<stop offset="0.6525" stop-color="#73EECA"/>
<stop offset="0.749" stop-color="#7DDAD4"/>
<stop offset="0.8465" stop-color="#8CBDE2"/>
<stop offset="0.9438" stop-color="#9F98F3"/>
<stop offset="1" stop-color="#AC7FFF"/>
</linearGradient>
<linearGradient id="paint2_linear_37_49" x1="48.0959" y1="42.8523" x2="68.3484" y2="73.9042" gradientUnits="userSpaceOnUse">
<stop offset="1.00695e-06" stop-color="#0C65FF"/>
<stop offset="0.4654" stop-color="#6AFFC2"/>
<stop offset="0.5574" stop-color="#6CFBC4"/>
<stop offset="0.6525" stop-color="#73EECA"/>
<stop offset="0.749" stop-color="#7DDAD4"/>
<stop offset="0.8465" stop-color="#8CBDE2"/>
<stop offset="0.9438" stop-color="#9F98F3"/>
<stop offset="1" stop-color="#AC7FFF"/>
</linearGradient>
<linearGradient id="paint3_linear_37_49" x1="84.3713" y1="33.5663" x2="64.9914" y2="66.4544" gradientUnits="userSpaceOnUse">
<stop offset="6.07368e-07" stop-color="#0C65FF"/>
<stop offset="0.0745147" stop-color="#2086F2"/>
<stop offset="0.2044" stop-color="#40BADD"/>
<stop offset="0.3176" stop-color="#57DFCE"/>
<stop offset="0.4083" stop-color="#65F7C5"/>
<stop offset="0.4654" stop-color="#6AFFC2"/>
<stop offset="0.5574" stop-color="#6CFBC4"/>
<stop offset="0.6525" stop-color="#73EECA"/>
<stop offset="0.749" stop-color="#7DDAD4"/>
<stop offset="0.8465" stop-color="#8CBDE2"/>
<stop offset="0.9438" stop-color="#9F98F3"/>
<stop offset="1" stop-color="#AC7FFF"/>
</linearGradient>
<clipPath id="clip0_37_49">
<rect width="64.9091" height="59.1818" fill="white" transform="translate(30.5454 34.3636)"/>
</clipPath>
</defs>
</svg>
